<svg xmlns="http://www.w3.org/2000/svg" viewBox="0 0 942.686 942.686" width="942.686" height="942.686" preserveAspectRatio="xMidYMid" version="1.0"><path fill="#edf1fd" d="M396.604 864.649c-6.37-.86-13.23-1.96-15.31-2.33-16.29-3.8-25.72-6.49-33.06-9.55-4.65-1.96-10.78-4.41-13.47-5.51s-5.14-2.33-5.51-2.69c-.37-.37-3.06-2.08-6.12-3.8-17.27-9.31-36.37-25.47-52.66-44.09-4.41-5.02-8.33-9.43-8.69-9.8-1.59-1.35-16.04-21.55-22.66-31.59-3.92-5.88-7.47-10.78-8.08-11.02-.49-.24-.98-.98-.98-1.59 0-1.35-8.82-15.06-10.04-15.55-.61-.24-.98-.98-.98-1.47 0-1.47-19.96-32.57-29.15-45.43-18.49-26.08-38.58-49.35-59.88-69.68-16.04-15.31-17.02-15.92-18.98-11.39l-1.47 3.43-.49-4.29c-.37-3.55 1.84-8.94 13.1-31.23 32.94-65.27 110.83-216.63 118.54-230.59 4.04-7.35 4.41-7.59 9.06-7.59 2.57 0 4.78.49 4.78 1.1s9.43 20.57 20.94 44.33c11.51 23.88 31.47 65.39 44.21 92.34 66.74 140.59 68.95 144.87 78.99 157.24 24.12 30 65.64 45.56 90.99 34.17 10.16-4.65 19.96-14.21 25.23-24.86 3.92-7.96 4.53-10.53 5.51-22.9.49-7.59 1.1-89.64 1.22-182.34.12-168.02.12-168.38-2.33-173.4-8.08-15.68-22.04-21.43-35.51-14.57-6.86 3.43-10.04 6.74-13.96 14.21l-2.82 5.51-.73 75.31c-.49 41.39-.86 116.83-.98 167.53-.12 60.99-.61 93.07-1.35 94.66-1.1 1.84-2.69 2.33-7.59 2.33-7.47 0-13.59-3.55-18.61-10.78-1.71-2.45-12.61-24.86-24.37-49.84-11.76-24.86-42.86-89.64-69.19-143.89-75.68-156.26-69.19-143.52-76.29-149.89-3.43-3.06-8.33-6.25-10.9-6.98-11.27-3.43-24.49 2.94-31.96 15.43-6 10.16-52.66 100.17-98.83 191.04-53.52 105.32-54.13 106.42-57.56 106.91-2.45.37-2.69.12-1.71-1.71.98-1.84-.37-4.16-7.72-12.61-32.21-38.09-50.58-75.44-57.68-116.83-1.47-9.31-1.84-16.9-1.35-33.68.61-23.63 2.08-32.21 8.94-52.17 2.33-6.86 4.29-12.86 4.53-13.59.12-.61 2.69-5.63 5.63-11.02 9.06-16.53 19.72-30.98 31.84-43.35 21.31-21.55 36.37-31.23 89.52-57.56 48.13-23.88 62.46-31.59 85.72-45.92 9.06-5.51 42.49-25.23 64.29-37.72 16.29-9.43 58.17-30.37 66.74-33.43 12.49-4.41 15.68-5.39 23.88-7.72 8.2-2.2 11.76-3.06 28.17-6.61 11.51-2.45 48.13-2.08 58.78.73 33.19 8.45 51.43 18.37 71.88 38.94 18.98 19.1 28.29 34.53 53.15 88.78 13.72 30 18.49 39.31 28.04 55.35 16.65 28.04 34.17 48.62 56.45 66.13 8.57 6.74 14.82 11.14 16.04 11.14.73 0 1.59.37 1.84.98.61 1.22 10.78 7.72 10.78 6.86 0-.49.98 0 2.2.98 3.67 3.43 32.45 17.02 39.43 18.74.37.12 1.47.61 2.45.98 4.9 2.08 23.27 8.69 28.17 10.04 25.23 7.35 28.66 8.08 30.13 6.12 2.08-2.82 2.94-2.2 2.94 1.84 0 2.2-3.67 11.14-8.69 21.19-14.94 29.64-104.09 202.18-105.44 203.9-.73.73-3.06 1.47-5.27 1.47h-4.04l-30-54.13c-16.41-29.88-36.74-66.62-45.07-81.68-15.55-28.29-20.08-34.29-28.66-38.21-13.59-6.25-30.13 2.33-35.51 18.49-3.18 9.8-5.63 4.53 44.7 95.52 20.7 37.35 44.09 79.84 52.05 94.29 20.21 36.86 23.02 41.64 28.41 46.9 4.78 4.53 15.06 9.43 20.08 9.43 5.63 0 15.8-6.25 20.7-12.61 2.57-3.55 17.63-31.72 33.43-62.7 57.07-111.93 111.81-218.1 113.89-220.67.61-.86 2.2-1.59 3.55-1.59 1.96 0 2.08.37.98 2.45-.73 1.35-.86 2.33-.37 2.2.49-.12 2.82.73 5.02 1.84 2.08 1.22 3.92 1.71 3.92 1.22 0-.61.49-.37.98.37.49.73 5.76 4.53 11.76 8.45 23.39 15.31 39.19 35.51 47.76 60.99 5.27 15.55 6.98 28.66 6.74 51.07-.24 36.74-7.59 68.7-23.15 101.03-22.78 47.15-61.23 83.76-107.77 102.25-23.63 9.43-41.02 13.72-74.09 18.25-76.78 10.78-89.89 15.31-147.93 51.07-41.02 25.23-50.7 30.74-68.21 38.45-20.82 9.18-42 15.92-58.17 18.37-4.65.73-9.92 1.59-11.63 1.96-6.61 1.47-43.96 1.35-55.11-.12z"/><g fill="#0c2d56"><path d="M30.074 708.509c-15.8-2.82-26.45-16.9-24.98-32.94.49-5.76 3.06-11.76 17.02-38.7 18.74-36.25 59.27-115.24 106.3-207.57 40.53-79.48 85.85-167.04 92.09-177.81 7.47-12.98 15.8-18 30.13-18.12 17.02-.12 23.39 6.12 38.33 36.62 36.74 74.95 109.85 226.55 128.09 265.25 11.76 24.98 22.66 47.39 24.37 49.84 3.8 5.39 11.27 10.78 14.94 10.78 1.47 0 3.18-1.1 3.92-2.33.73-1.59 1.22-33.68 1.35-94.66.12-50.7.49-126.13.98-167.53l.73-75.31 2.82-5.51c6.37-12 14.82-17.14 28.66-17.14s21.68 4.9 28.17 17.63l2.57 5.02-.24 172.3c-.12 94.78-.73 178.43-1.35 185.9-.86 12.12-1.47 14.7-5.39 22.66-5.27 10.65-14.94 20.21-25.23 24.86-9.8 4.53-28.66 5.14-42.86 1.59-21.68-5.39-41.27-18.12-55.47-35.76-10.04-12.37-12.25-16.65-78.99-157.24-12.74-26.94-32.7-68.46-44.21-92.34-11.51-23.76-20.94-43.84-20.94-44.45s-.61-.98-1.47-.73c-1.47.49-11.76 19.72-46.54 87.31-19.23 37.11-34.66 67.23-97.97 191.65-35.15 68.95-42.98 83.52-46.54 87.68-6.49 7.35-17.51 10.9-28.29 9.06zM681.444 703.619c-11.76-4.65-14.21-7.96-39.31-53.88-7.96-14.45-31.35-56.94-52.05-94.29-45.19-81.56-45.31-81.93-46.17-90.01-1.35-12.37 6.12-25.72 17.14-31.11 6.98-3.31 20.21-3.43 27.19-.24 8.57 3.92 13.1 9.92 28.66 38.21 70.17 127.11 75.19 135.93 76.78 134.34.86-.86 23.63-44.58 50.7-97.11 77.64-150.75 94.05-182.47 104.09-201.45 5.14-9.8 14.57-27.92 20.94-40.41 8.2-16.29 12.98-24.12 16.65-27.68 12.74-12.49 33.19-11.63 44.58 1.84 5.14 5.88 7.23 12 7.23 21.19 0 7.47-2.82 13.96-22.9 51.8-6.12 11.51-24.12 46.17-40.17 77.15-15.92 30.98-32.82 63.56-37.35 72.25-11.63 22.29-51.43 99.93-85.36 166.55-15.8 30.98-30.86 59.15-33.43 62.7-8.82 11.63-23.39 15.55-37.23 10.16z"/></g></svg>